<?xml version="1.0" encoding="UTF-8" standalone="no"?>
<svg
   width="10.00001"
   height="10"
   viewBox="0 0 10.00001 10"
   fill="none"
   version="1.1"
   id="svg11"
   sodipodi:docname="heart.svg"
   inkscape:version="1.2.2 (b0a8486541, 2022-12-01)"
   xmlns:inkscape="http://www.inkscape.org/namespaces/inkscape"
   xmlns:sodipodi="http://sodipodi.sourceforge.net/DTD/sodipodi-0.dtd"
   xmlns="http://www.w3.org/2000/svg"
   xmlns:svg="http://www.w3.org/2000/svg">
  <sodipodi:namedview
     id="namedview13"
     pagecolor="#505050"
     bordercolor="#ffffff"
     borderopacity="1"
     inkscape:showpageshadow="0"
     inkscape:pageopacity="0"
     inkscape:pagecheckerboard="1"
     inkscape:deskcolor="#d1d1d1"
     showgrid="false"
     inkscape:zoom="28.428571"
     inkscape:cx="4.3090452"
     inkscape:cy="9.5854271"
     inkscape:window-width="1920"
     inkscape:window-height="962"
     inkscape:window-x="0"
     inkscape:window-y="32"
     inkscape:window-maximized="1"
     inkscape:current-layer="svg11" />
  <defs
     id="defs9">
    <linearGradient
       id="paint0_linear_3248_24290"
       x1="4.5"
       y1="0"
       x2="4.5"
       y2="7"
       gradientUnits="userSpaceOnUse">
      <stop
         stop-color="#D284CF"
         id="stop4" />
      <stop
         offset="1"
         stop-color="#6C96EA"
         id="stop6" />
    </linearGradient>
  </defs>
  <path
     d="M 5,10 C 7.76143,10 10.00001,7.76143 10.00001,5 10.00001,2.23857 7.76143,0 5,0 2.23858,0 0,2.23857 0,5 c 0,2.76143 2.23858,5 5,5 z"
     fill="#0098ea"
     id="path183135-3"
     style="fill:#0098ea;fill-opacity:1;stroke-width:13.2484" />
  <path
     class="fil2"
     d="m 9.52385,5.00019 c 0,2.4982 -2.0255,4.52365 -4.52412,4.52365 -2.49825,0 -4.52358,-2.02545 -4.52358,-4.52365 0,-2.49858 2.02533,-4.52403 4.52358,-4.52403 2.49862,0 4.52412,2.02545 4.52412,4.52403 z M 5.52201,7.31367 C 5.76645,6.55938 6.47532,6.01393 7.31122,6.01393 c 0.0286,0 0.0569,3.6e-4 0.0853,10e-4 0.24055,-0.40635 0.3789,-0.88077 0.3789,-1.38709 0,-1.50559 -1.22093,-2.72632 -2.72619,-2.72632 -1.50545,0 -2.72639,1.22073 -2.72639,2.72632 0,0.50632 0.13818,0.98074 0.37892,1.38709 0.0284,-10e-4 0.0568,-10e-4 0.0853,-10e-4 0.83591,0 1.54477,0.54545 1.78922,1.29974 0.0597,0.18305 0.22126,0.81901 0.22126,1.02154 v 0 0.68083 C 2.67096,8.91051 0.97856,7.15324 0.97856,5.00019 c 0,-2.22057 1.80034,-4.02087 4.02114,-4.02087 2.22062,0 4.02113,1.8003 4.02113,4.02087 0,2.11948 -1.64009,3.85617 -3.72012,4.00954 V 8.33353 C 5.30158,8.12879 5.46244,7.49598 5.52198,7.31367 Z M 5.30074,2.81912 C 5.5183,2.73302 5.7416,2.66074 5.96825,2.60344 5.76071,2.50954 5.53628,2.44597 5.30074,2.41927 Z M 6.55877,2.9968 C 6.12534,3.0626 5.70229,3.18634 5.30074,3.36458 V 3.97976 C 5.82135,3.71195 6.38758,3.55264 6.96958,3.50775 6.8583,3.31728 6.71995,3.14554 6.55877,2.9968 Z M 7.18232,3.99961 C 6.51871,4.02111 5.87273,4.20992 5.30074,4.55544 V 5.3726 C 5.57468,5.15393 5.88368,4.98053 6.21621,4.86072 6.55618,4.73775 6.91283,4.67395 7.27208,4.66969 c 0,-0.0137 0,-0.0274 0,-0.0412 0,-0.21847 -0.0315,-0.42972 -0.09,-0.6289 z m 0.0224,1.17473 C 6.92652,5.18514 6.65054,5.23834 6.38643,5.33383 5.97043,5.48369 5.59857,5.73314 5.3007,6.05918 V 6.61317 C 5.69149,6.00039 6.34823,5.59108 7.08583,5.52152 7.13513,5.40895 7.17483,5.29285 7.20472,5.17434 Z M 4.79753,6.61336 V 2.41927 C 3.68787,2.54446 2.82601,3.48531 2.82601,4.62851 c 0,0.30936 0.0632,0.61222 0.18621,0.89301 0.73779,0.0696 1.39452,0.47887 1.78531,1.09184 z"
     id="path12713-7-5"
     style="clip-rule:evenodd;fill:#ffffff;fill-opacity:1;fill-rule:evenodd;stroke-width:0.000975555;image-rendering:optimizeQuality;shape-rendering:geometricPrecision;text-rendering:geometricPrecision"
     inkscape:export-filename="../Github/ecoplay/static/icons/blago.png"
     inkscape:export-xdpi="49.152"
     inkscape:export-ydpi="49.152" />
</svg>
